<?xml version="1.0" standalone="no"?>
<!DOCTYPE svg PUBLIC "-//W3C//DTD SVG 20010904//EN"
 "http://www.w3.org/TR/2001/REC-SVG-20010904/DTD/svg10.dtd">
<svg version="1.0" xmlns="http://www.w3.org/2000/svg"
 width="300.000000pt" height="200.000000pt" viewBox="0 0 300.000000 200.000000"
 preserveAspectRatio="xMidYMid meet">
<metadata>
Created by potrace 1.10, written by Peter Selinger 2001-2011
</metadata>
<g transform="translate(0.000000,200.000000) scale(0.100000,-0.100000)"
fill="#ffffff" stroke="none">
<path d="M1405 1366 c-31 -9 -39 -16 -37 -32 5 -25 1 -25 55 -7 150 49 299
-93 265 -252 -19 -88 -116 -165 -208 -165 -112 0 -209 99 -210 212 0 51 28
135 40 121 4 -4 25 -61 46 -125 21 -65 41 -118 45 -118 3 0 12 20 19 45 7 25
16 45 19 45 4 0 13 -21 20 -46 15 -51 21 -49 47 20 10 27 20 44 21 39 2 -6 -3
-28 -11 -48 -22 -53 -21 -55 30 -55 39 0 51 5 80 34 28 28 34 41 34 77 0 47
-19 79 -58 98 -19 10 -23 9 -31 -11 -7 -18 -4 -25 10 -30 58 -22 39 -118 -24
-118 -24 0 -28 75 -7 126 l19 44 -28 0 c-25 0 -30 -5 -41 -45 -7 -25 -16 -47
-20 -50 -3 -2 -12 18 -19 45 -7 28 -16 50 -21 50 -4 0 -13 -20 -20 -45 -12
-44 -30 -70 -30 -43 0 31 -54 188 -65 188 -16 0 -62 -60 -81 -105 -23 -56 -18
-143 12 -203 80 -160 296 -190 414 -56 45 52 62 99 62 169 1 171 -164 291
-327 241z m61 -258 c19 -21 19 -21 -1 -13 -11 4 -28 7 -38 7 -15 -1 -16 2 -7
14 17 19 24 18 46 -8z"/>
</g>
</svg>
